<svg xmlns="http://www.w3.org/2000/svg" viewBox="0 0 64 64" role="img" aria-label="ルキスマCRM">
  <defs>
    <radialGradient id="bgGlow" cx="32%" cy="18%" r="74%">
      <stop offset="0" stop-color="#314a7e"/>
      <stop offset=".42" stop-color="#111827"/>
      <stop offset="1" stop-color="#06070b"/>
    </radialGradient>
    <linearGradient id="rim" x1="11" y1="7" x2="53" y2="57" gradientUnits="userSpaceOnUse">
      <stop offset="0" stop-color="#f7fbff"/>
      <stop offset=".28" stop-color="#abc7ff"/>
      <stop offset=".72" stop-color="#2f7dff"/>
      <stop offset="1" stop-color="#0a1224"/>
    </linearGradient>
    <linearGradient id="mark" x1="19" y1="12" x2="50" y2="53" gradientUnits="userSpaceOnUse">
      <stop offset="0" stop-color="#ffffff"/>
      <stop offset=".36" stop-color="#dce8ff"/>
      <stop offset=".72" stop-color="#79a9ff"/>
      <stop offset="1" stop-color="#2f7dff"/>
    </linearGradient>
    <filter id="softShadow" x="-30%" y="-30%" width="160%" height="160%">
      <feDropShadow dx="0" dy="7" stdDeviation="5" flood-color="#000000" flood-opacity=".42"/>
    </filter>
    <filter id="blueBloom" x="-45%" y="-45%" width="190%" height="190%">
      <feGaussianBlur stdDeviation="1.4" result="blur"/>
      <feMerge>
        <feMergeNode in="blur"/>
        <feMergeNode in="SourceGraphic"/>
      </feMerge>
    </filter>
  </defs>
  <rect width="64" height="64" rx="17" fill="#06070b"/>
  <rect x="3" y="3" width="58" height="58" rx="15" fill="url(#bgGlow)" filter="url(#softShadow)"/>
  <rect x="4.5" y="4.5" width="55" height="55" rx="13.5" fill="none" stroke="url(#rim)" stroke-width="2"/>
  <path d="M13 16c4-5 10-8 18-8h13c6 0 11 5 11 11v1H43c-2 0-4-1-5-3l-1-2H25c-4 0-8 1-12 4v-3Z" fill="#ffffff" opacity=".12"/>
  <circle cx="47.5" cy="15.5" r="3.2" fill="#abc7ff" opacity=".9" filter="url(#blueBloom)"/>
  <circle cx="14.5" cy="48.5" r="2.3" fill="#2f7dff" opacity=".72"/>
  <path fill="url(#mark)" filter="url(#blueBloom)" d="M19 13h20c8.6 0 14 5.1 14 13.1 0 5.5-2.7 9.7-7.5 11.8L54 51H41.2l-7.3-11.4h-4.1V51H19V13Zm10.8 9.8v8.5h8.4c2.8 0 4.6-1.6 4.6-4.2 0-2.7-1.8-4.3-4.6-4.3h-8.4Z"/>
  <path d="M18 55h28" stroke="#abc7ff" stroke-width="1.4" stroke-linecap="round" opacity=".42"/>
</svg>
